<svg width="59" height="58" viewBox="0 0 59 58" fill="none" xmlns="http://www.w3.org/2000/svg">
<g clip-path="url(#clip0_231_820)">
<rect x="-3" y="-3" width="64" height="64" fill="white"/>
<path d="M25.6001 43.1L51.1001 17.6L41.3001 7.80005L15.6001 33.5L14.0001 35.1C14.0001 35.1 12.4001 36.9 13.5001 38.8C14.7001 42 17.3001 44.4 20.5001 45.5C20.5001 45.5 22.6001 46.6 25.6001 43.1Z" stroke="#5DA5D3" stroke-width="2" stroke-miterlimit="10"/>
<path d="M39.7001 6.60005L40.4001 5.90005C40.7001 5.60005 41.2001 5.60005 41.6001 5.90005L53.4001 17.7C53.7001 18 53.7001 18.5 53.4001 18.9L52.7001 19.6C52.4001 19.9 51.9001 19.9 51.5001 19.6L39.7001 7.80005C39.4001 7.40005 39.4001 6.90005 39.7001 6.60005Z" fill="#5DA5D3"/>
<path d="M12.3001 47.9001L11.2001 46.8C10.5001 46 10.5001 44.8 11.3001 44.1L12.6001 42.8L13.5001 44C14.0001 44.6 14.5001 45.2001 15.2001 45.7001L16.4001 46.5L15.0001 47.8C14.3001 48.6 13.1001 48.6001 12.3001 47.9001Z" fill="#5DA5D3"/>
<path d="M14.4001 46.0001L13.3001 45.1001C13.1001 45.1001 12.9001 45.2001 12.7001 45.3001L2.2001 55.8001C1.9001 56.1001 1.9001 56.7001 2.2001 57.0001C2.5001 57.3001 3.1001 57.3001 3.4001 57.0001L14.4001 46.0001Z" fill="#5DA5D3"/>
<path d="M58.5002 10C57.7002 10.6 56.6002 10.5 55.8002 9.90005L53.7002 8.00005C52.8002 7.20005 51.9002 6.30005 51.1002 5.40005L49.3002 3.30005C48.5002 2.50005 48.5002 1.30005 49.3002 0.500049C49.9002 -0.0999512 50.8002 -0.0999512 51.4002 0.500049L58.6002 7.70005C59.2002 8.30005 59.2002 9.30005 58.5002 10Z" fill="#5DA5D3"/>
<path d="M50.9559 5.13616L47.2083 8.88379L50.2488 11.9243L53.9964 8.17669L50.9559 5.13616Z" fill="#5DA5D3"/>
<path d="M41.0001 12.6001C41.0001 12.6001 38.1001 14.9001 37.5001 23.5001C37.4001 25.5001 36.7001 27.4001 35.4001 28.9001C34.2001 30.5001 32.6001 32.6001 26.9001 33.7001" stroke="#5DA5D3" stroke-width="1.5" stroke-linecap="round" stroke-linejoin="round"/>
<path d="M22.7001 34.3C22.7001 34.3 18.6001 35 16.4001 37.3" stroke="#5DA5D3" stroke-width="1.5" stroke-linecap="round" stroke-linejoin="round"/>
<path d="M21.9001 42.4001C21.9001 42.4001 24.8001 40.1 25.4001 31.5C25.5001 29.5 26.2001 27.6 27.5001 26.1C28.7001 24.5 30.3001 22.4 36.0001 21.3" stroke="#5DA5D3" stroke-width="1.5" stroke-linecap="round" stroke-linejoin="round"/>
<path d="M40.2002 20.6001C40.2002 20.6001 44.3002 19.9001 46.5002 17.6001" stroke="#5DA5D3" stroke-width="1.5" stroke-linecap="round" stroke-linejoin="round"/>
<path d="M39.5 14.7L44.6 19.1" stroke="#5DA5D3" stroke-width="1.5" stroke-miterlimit="10"/>
<path d="M31.4001 22.8L36.5001 27.1" stroke="#5DA5D3" stroke-width="1.5" stroke-miterlimit="10"/>
<path d="M28.5 24.9001L34.5 30.0001" stroke="#5DA5D3" stroke-width="1.5" stroke-miterlimit="10"/>
<path d="M26.2002 28L31.2002 32.3" stroke="#5DA5D3" stroke-width="1.5" stroke-miterlimit="10"/>
<path d="M18.4001 35.8L23.4001 40.2001" stroke="#5DA5D3" stroke-width="1.5" stroke-miterlimit="10"/>
</g>
<defs>
<clipPath id="clip0_231_820">
<rect width="59" height="57.9" fill="white"/>
</clipPath>
</defs>
</svg>
