<svg width="51" height="54" viewBox="0 0 51 54" fill="none" xmlns="http://www.w3.org/2000/svg">
<g clip-path="url(#clip0_225_728)">
<rect x="-7" y="-6" width="64" height="64" fill="white"/>
<path d="M25.05 53.5699C22.9133 53.5699 20.8208 52.9603 19.0184 51.8127C17.216 50.6651 15.7784 49.0271 14.8744 47.091C13.9704 45.1549 13.6375 43.0011 13.9148 40.8824C14.1921 38.7637 15.0682 36.7681 16.44 35.1299L18 36.4199C16.8725 37.7645 16.1522 39.403 15.9236 41.1429C15.695 42.8827 15.9677 44.6517 16.7095 46.2419C17.4514 47.8322 18.6317 49.1777 20.1118 50.1204C21.5919 51.0631 23.3102 51.5639 25.065 51.5639C26.8198 51.5639 28.5382 51.0631 30.0182 50.1204C31.4983 49.1777 32.6786 47.8322 33.4205 46.2419C34.1624 44.6517 34.4351 42.8827 34.2065 41.1429C33.9779 39.403 33.2575 37.7645 32.13 36.4199L33.65 35.1299C35.0289 36.7649 35.9123 38.7597 36.1961 40.8796C36.4799 42.9995 36.1525 45.1564 35.2523 47.0965C34.352 49.0367 32.9165 50.6794 31.1145 51.8315C29.3124 52.9836 27.2189 53.5971 25.08 53.5999L25.05 53.5699Z" fill="#5DA5D3"/>
<path d="M50.0301 36.72L32.1001 36.39L32.8401 34.72H50.0301V36.72Z" fill="#5DA5D3"/>
<path d="M17.97 36.42L0 36.72V34.72H17.26L17.97 36.42Z" fill="#5DA5D3"/>
<path d="M3.77002 21.33L7.84002 16.49L11.72 21.33" stroke="#5DA5D3" stroke-width="2" stroke-linecap="round" stroke-linejoin="round"/>
<path d="M7.75 29.61L7.84 16.49" stroke="#5DA5D3" stroke-width="2" stroke-linecap="round" stroke-linejoin="round"/>
<path d="M17.46 8.21012L21.52 3.37012L25.41 8.21012" stroke="#5DA5D3" stroke-width="2" stroke-linecap="round" stroke-linejoin="round"/>
<path d="M21.4299 16.4901L21.5199 3.37012" stroke="#5DA5D3" stroke-width="2" stroke-linecap="round" stroke-linejoin="round"/>
<path d="M39.6699 23.2299L43.7299 18.3899L47.6199 23.2299" stroke="#5DA5D3" stroke-width="2" stroke-linecap="round" stroke-linejoin="round"/>
<path d="M43.6399 31.5199L43.7299 18.3899" stroke="#5DA5D3" stroke-width="2" stroke-linecap="round" stroke-linejoin="round"/>
<path d="M9.36001 42.41C10.2437 42.41 10.96 41.6936 10.96 40.81C10.96 39.9263 10.2437 39.21 9.36001 39.21C8.47635 39.21 7.76001 39.9263 7.76001 40.81C7.76001 41.6936 8.47635 42.41 9.36001 42.41Z" fill="#5DA5D3"/>
<path d="M3.44009 48.1399C4.32374 48.1399 5.04009 47.4236 5.04009 46.5399C5.04009 45.6563 4.32374 44.9399 3.44009 44.9399C2.55643 44.9399 1.84009 45.6563 1.84009 46.5399C1.84009 47.4236 2.55643 48.1399 3.44009 48.1399Z" fill="#5DA5D3"/>
<path d="M10.14 52.6099C11.0237 52.6099 11.74 51.8936 11.74 51.0099C11.74 50.1263 11.0237 49.4099 10.14 49.4099C9.25638 49.4099 8.54004 50.1263 8.54004 51.0099C8.54004 51.8936 9.25638 52.6099 10.14 52.6099Z" fill="#5DA5D3"/>
<path d="M41.13 42.41C42.0137 42.41 42.73 41.6936 42.73 40.81C42.73 39.9263 42.0137 39.21 41.13 39.21C40.2464 39.21 39.53 39.9263 39.53 40.81C39.53 41.6936 40.2464 42.41 41.13 42.41Z" fill="#5DA5D3"/>
<path d="M47.0499 48.1399C47.9336 48.1399 48.65 47.4236 48.65 46.5399C48.65 45.6563 47.9336 44.9399 47.0499 44.9399C46.1663 44.9399 45.45 45.6563 45.45 46.5399C45.45 47.4236 46.1663 48.1399 47.0499 48.1399Z" fill="#5DA5D3"/>
<path d="M40.35 52.6099C41.2337 52.6099 41.95 51.8936 41.95 51.0099C41.95 50.1263 41.2337 49.4099 40.35 49.4099C39.4663 49.4099 38.75 50.1263 38.75 51.0099C38.75 51.8936 39.4663 52.6099 40.35 52.6099Z" fill="#5DA5D3"/>
<path d="M41.4 0C41.4 0 29.53 3.87 25.91 18.58C25.91 18.58 23.29 33.85 22.25 36.4C20.9 39.71 19.31 47.89 24.41 48.67C27.63 49.16 31.27 46.33 28.55 36.67C26.81 30.59 25.05 9.28 41.4 0Z" fill="#5DA5D3"/>
</g>
<defs>
<clipPath id="clip0_225_728">
<rect width="50.03" height="53.57" fill="white"/>
</clipPath>
</defs>
</svg>
