<svg width="64" height="64" viewBox="0 0 64 64" fill="none" xmlns="http://www.w3.org/2000/svg">
<rect width="64" height="64" fill="white"/>
<path d="M20.8103 5C20.8103 5 21.3203 10.9058 17.0003 24.7903C12.6803 38.6748 23.3103 58.1214 23.3103 58.1214" stroke="#5DA5D3" stroke-width="2" stroke-linecap="round" stroke-linejoin="round"/>
<path d="M42.7502 58.1214C42.7502 58.1214 62.4502 34.0501 43.6502 14.5931C43.6502 14.5931 42.7502 12.0933 45.0202 5" stroke="#5DA5D3" stroke-width="2" stroke-linecap="round" stroke-linejoin="round"/>
<path d="M16.2903 28.0713C16.2903 28.0713 23.9303 33.4668 32.7203 26.6026C35.3354 24.3568 38.4692 22.863 41.8103 22.2696C44.1203 21.8842 47.2803 21.7905 49.4503 22.9675" stroke="#5DA5D3" stroke-width="2" stroke-miterlimit="10"/>
<path d="M30.1401 59.3608C30.1401 41.185 33.8401 36.9665 36.4901 34.1021C36.4901 34.1021 42.8301 27.9775 50.7001 27.9775" stroke="#5DA5D3" stroke-width="2" stroke-linecap="round" stroke-linejoin="round"/>
<path d="M32.0001 39.529C32.0001 39.529 21.5501 35.5084 16.1301 34.9668" stroke="#5DA5D3" stroke-width="2" stroke-miterlimit="10"/>
<path d="M26.3803 24.9882C26.8332 24.9882 27.2003 24.6059 27.2003 24.1341C27.2003 23.6624 26.8332 23.28 26.3803 23.28C25.9274 23.28 25.5603 23.6624 25.5603 24.1341C25.5603 24.6059 25.9274 24.9882 26.3803 24.9882Z" fill="#5DA5D3"/>
<path d="M50.7003 9.68726C50.7003 9.68726 44.3803 16.1451 31.8003 18.9262L33.2703 15.416L31.8003 18.9262L34.8803 21.0094" stroke="#5DA5D3" stroke-width="2" stroke-linecap="round" stroke-linejoin="round"/>
<path d="M15.0902 16.8325C15.0902 16.8325 6.83023 22.8217 23.1502 22.0405C23.1606 22.0328 23.169 22.0226 23.1748 22.0108C23.1806 21.9991 23.1836 21.986 23.1836 21.9728C23.1836 21.9596 23.1806 21.9465 23.1748 21.9347C23.169 21.923 23.1606 21.9128 23.1502 21.9051L21.2202 19.3011L23.1502 21.9051L21.0902 25.0299" stroke="#5DA5D3" stroke-width="2" stroke-linecap="round" stroke-linejoin="round"/>
<path d="M31.7301 39.9352C31.7301 39.9352 21.2801 35.925 15.8601 35.373L16.0001 28.4776C16.0001 28.4776 23.6401 33.8731 32.4301 27.0194C35.0513 24.7749 38.193 23.2877 41.5401 22.7072C43.8501 22.3218 47.0101 22.2385 49.1801 23.4155L50.4301 28.4255C42.5601 28.4255 36.2201 34.5397 36.2201 34.5397C34.3277 35.9349 32.7873 37.786 31.7301 39.9352Z" fill="#5DA5D3"/>
</svg>
