<svg width="64" height="64" viewBox="0 0 64 64" fill="none" xmlns="http://www.w3.org/2000/svg">
<rect width="64" height="64" fill="white"/>
<path d="M24.5999 25.3737C24.5999 25.3737 29.7999 26.2069 32.2999 30.2692C34.6999 34.1231 32.2999 35.6855 38.6999 37.6645C42.5999 38.9144 42.0999 40.1643 40.1999 41.8309C40.1999 41.8309 39.1999 42.56 41.3999 42.8725C42.1999 42.9766 42.5999 43.0808 42.3999 43.8099C42.1999 44.7473 41.4999 45.8931 39.4999 46.7264C40.4999 46.4139 41.3999 46.1014 42.3999 45.6848C42.7999 45.4765 43.7999 45.4765 43.7999 45.8931C43.8999 46.8305 43.7999 48.6012 45.4999 49.4345C45.4999 49.4345 47.6999 51.5177 43.0999 53.8092C43.0999 53.8092 30.6999 58.4964 25.1999 54.0175C25.1999 54.0175 21.0999 51.3094 22.6999 44.6432C23.0999 42.7683 24.9999 37.4562 23.2999 28.8109C22.4999 24.8529 20.1999 21.4156 16.7999 19.4366C14.5999 18.0825 12.1999 17.1451 9.69985 16.6243C9.69985 16.6243 15.8999 18.2908 17.1999 29.6442C17.1999 29.6442 17.7999 33.1856 14.8999 42.0392C14.8999 42.0392 11.4999 54.0175 18.7999 57.6631C18.7999 57.6631 13.7999 54.7467 17.2999 40.7893C18.2999 36.7271 20.5999 30.3733 18.8999 24.957C17.6999 21.1031 14.9999 17.3534 9.59985 16.6243" stroke="#5DA5D3" stroke-width="2" stroke-linecap="round" stroke-linejoin="round"/>
<path d="M31.4998 37.6646C31.4998 37.6646 30.6998 40.2685 26.7998 40.3727" stroke="#5DA5D3" stroke-width="2" stroke-linecap="round" stroke-linejoin="round"/>
<path d="M23.7 38.2894C23.7 38.2894 24.8 34.3314 30.1 34.123" stroke="#5DA5D3" stroke-width="2" stroke-linecap="round" stroke-linejoin="round"/>
<path d="M16.5999 19.5408C14.3999 18.1867 11.9999 17.2493 9.4999 16.7285C9.4999 16.7285 13.3999 18.6034 15.6999 24.1238C16.8999 27.1445 17.1999 30.3734 16.7999 33.4982C16.3999 36.4147 15.6999 39.3311 14.6999 42.1434C14.6999 42.1434 10.8999 54.226 18.5999 57.7674C18.5999 57.7674 13.5999 54.8509 17.0999 40.8935C18.0999 36.8313 20.0999 29.0193 18.6999 25.0613C17.3999 21.2074 14.7999 17.4576 9.3999 16.7285" fill="#5DA5D3"/>
<path d="M39.2999 30.4776L41.4 26.5196L36.9 18.4993H28L26.7 20.3741" stroke="#5DA5D3" stroke-width="2" stroke-linecap="round" stroke-linejoin="round"/>
<path d="M46.8999 42.7684H50.3999L54.8999 34.644L50.3999 26.5195H41.3999L38.8999 30.9984" stroke="#5DA5D3" stroke-width="2" stroke-linecap="round" stroke-linejoin="round"/>
<path d="M50.7001 10.3748H41.8L37.3 18.4992L41.8 26.5195H50.7001L55.2001 18.4992L50.7001 10.3748Z" stroke="#5DA5D3" stroke-width="2" stroke-linecap="round" stroke-linejoin="round"/>
</svg>
