<svg width="45" height="28" viewBox="0 0 45 28" fill="none" xmlns="http://www.w3.org/2000/svg">
<path d="M30.3428 25.2217V25.5185C30.3428 26.6567 31.2504 27.5794 32.3699 27.5794H42.9724C44.092 27.5794 44.9996 26.6567 44.9996 25.5185V25.2217C44.9996 24.0835 44.092 23.1609 42.9724 23.1609H32.3699C31.2504 23.1609 30.3428 24.0835 30.3428 25.2217Z" fill="#202020" fill-opacity="0.95"/>
<path d="M30.3428 11.7081V12.0048C30.3428 13.143 31.2504 14.0657 32.3699 14.0657H42.9724C44.092 14.0657 44.9996 13.143 44.9996 12.0048V11.7081C44.9996 10.5699 44.092 9.64723 42.9724 9.64723H32.3699C31.2504 9.64723 30.3428 10.5699 30.3428 11.7081Z" fill="#202020" fill-opacity="0.95"/>
<path d="M30.3433 18.5852V18.882C30.3433 20.0202 31.2509 20.9428 32.3704 20.9428H42.9729C44.0925 20.9428 45.0001 20.0202 45.0001 18.882V18.5852C45.0001 17.447 44.0925 16.5243 42.9729 16.5243H32.3704C31.2509 16.5243 30.3433 17.447 30.3433 18.5852Z" fill="#202020" fill-opacity="0.95"/>
<path d="M19.0427 13.9562V16.4004C19.0453 16.5108 19.0224 16.6202 18.9759 16.72C18.9295 16.8198 18.8606 16.9071 18.775 16.975C18.6542 17.0686 18.5061 17.1183 18.3542 17.116C18.2024 17.1138 18.0557 17.0598 17.9376 16.9627C17.857 16.8941 17.7924 16.808 17.7488 16.7106C17.7052 16.6133 17.6837 16.5073 17.6857 16.4004V13.9562C17.6857 12.8131 17.2391 11.7169 16.4441 10.9087C15.6491 10.1005 14.5708 9.64642 13.4465 9.64642H11.8743C10.75 9.64642 9.67176 10.1005 8.87675 10.9087C8.08174 11.7169 7.63511 12.8131 7.63511 13.9562L7.62219 21.9649C7.62409 22.0601 7.60722 22.1548 7.57255 22.2434C7.53788 22.3319 7.48612 22.4125 7.42032 22.4804C7.17364 22.7332 6.76223 22.7324 6.50263 22.4931C6.42953 22.4268 6.37125 22.3453 6.3317 22.2542C6.29214 22.1631 6.27223 22.0644 6.2733 21.9649V11.7081C6.2732 11.1616 6.05958 10.6375 5.67942 10.2511C5.29927 9.86473 4.78371 9.64766 4.24615 9.64766H3.95465C3.41708 9.64766 2.90153 9.86473 2.52137 10.2511C2.14122 10.6375 1.9276 11.1616 1.92749 11.7081V23.2709C1.92749 24.4139 2.37412 25.5101 3.16913 26.3183C3.96414 27.1266 5.04241 27.5806 6.16672 27.5806H7.7316C8.85591 27.5806 9.93418 27.1266 10.7292 26.3183C11.5242 25.5101 11.9708 24.4139 11.9708 23.2709L11.9821 15.2606C11.9801 15.1539 12.0015 15.048 12.0448 14.9508C12.0881 14.8536 12.1522 14.7675 12.2324 14.6987C12.35 14.6005 12.4968 14.5458 12.6489 14.5434C12.8009 14.5411 12.9493 14.5911 13.0698 14.6855C13.1552 14.7537 13.2238 14.841 13.2703 14.9408C13.3167 15.0405 13.3397 15.1498 13.3375 15.2602V17.7027C13.3376 18.8464 13.7846 19.9433 14.5801 20.7519C15.3756 21.5606 16.4545 22.0149 17.5795 22.0149H19.1505C19.7067 22.0147 20.2574 21.903 20.7711 21.6863C21.2848 21.4695 21.7514 21.1519 22.1443 20.7516C22.5372 20.3513 22.8486 19.8762 23.0607 19.3535C23.2728 18.8308 23.3814 18.2707 23.3804 17.7052V15.2606C23.3778 15.1502 23.4007 15.0407 23.4472 14.941C23.4937 14.8412 23.5625 14.7538 23.6481 14.6859C23.7687 14.5918 23.917 14.5419 24.069 14.5443C24.221 14.5467 24.3678 14.6012 24.4854 14.6991C24.5657 14.7675 24.6299 14.8533 24.6732 14.9503C24.7165 15.0473 24.7379 15.1529 24.7358 15.2593V25.5157C24.7358 26.0622 24.9493 26.5864 25.3295 26.9729C25.7097 27.3594 26.2253 27.5765 26.7629 27.5765H27.0548C27.5924 27.5765 28.1081 27.3594 28.4882 26.9729C28.8684 26.5864 29.082 26.0622 29.082 25.5157V13.9562C29.082 12.8131 28.6353 11.7169 27.8403 10.9087C27.0453 10.1005 25.9671 9.64642 24.8427 9.64642H23.2726C22.7164 9.64658 22.1657 9.75824 21.6519 9.975C21.1382 10.1918 20.6715 10.5094 20.2787 10.9096C19.8858 11.3099 19.5744 11.785 19.3623 12.3078C19.1502 12.8305 19.0416 13.3907 19.0427 13.9562Z" fill="#202020" fill-opacity="0.95"/>
<path d="M4.07249 0H4.07208C1.82313 0 0 1.85345 0 4.1398V4.14021C0 6.42656 1.82313 8.28001 4.07208 8.28001H4.07249C6.32143 8.28001 8.14457 6.42656 8.14457 4.14021V4.1398C8.14457 1.85345 6.32143 0 4.07249 0Z" fill="#202020" fill-opacity="0.95"/>
</svg>
